<svg width="17" height="15" viewBox="0 0 17 15" fill="none" xmlns="http://www.w3.org/2000/svg">
<path fill-rule="evenodd" clip-rule="evenodd" d="M1.17212 2.17208C1.92223 1.4222 2.93947 1.00093 4.00012 1.00093C5.06078 1.00093 6.07801 1.4222 6.82812 2.17208L8.00012 3.34308L9.17212 2.17208C9.54111 1.79004 9.98249 1.48531 10.4705 1.27567C10.9585 1.06604 11.4834 0.955694 12.0145 0.951079C12.5456 0.946463 13.0724 1.04767 13.5639 1.24879C14.0555 1.44992 14.5021 1.74693 14.8777 2.1225C15.2533 2.49807 15.5503 2.94468 15.7514 3.43626C15.9525 3.92785 16.0537 4.45457 16.0491 4.98569C16.0445 5.5168 15.9342 6.04168 15.7245 6.5297C15.5149 7.01771 15.2102 7.45909 14.8281 7.82808L8.00012 14.6571L1.17212 7.82808C0.422238 7.07797 0.000976562 6.06074 0.000976562 5.00008C0.000976563 3.93942 0.422238 2.92219 1.17212 2.17208V2.17208Z" fill="#E71414"/>
</svg>
